<?xml version="1.0" standalone="no"?>
<!DOCTYPE svg PUBLIC "-//W3C//DTD SVG 20010904//EN"
 "http://www.w3.org/TR/2001/REC-SVG-20010904/DTD/svg10.dtd">
<svg version="1.0" xmlns="http://www.w3.org/2000/svg"
 width="189.000000pt" height="189.000000pt" viewBox="0 0 189.000000 189.000000"
 preserveAspectRatio="xMidYMid meet">
<metadata>
Created by potrace 1.14, written by Peter Selinger 2001-2017
</metadata>
<g transform="translate(0.000000,189.000000) scale(0.100000,-0.100000)"
fill="#000000" stroke="none">
<path d="M433 1442 c-42 -3 -43 -4 -58 -55 -47 -163 -32 -208 53 -157 l32 20
0 -25 0 -25 193 0 192 0 -80 78 c-90 87 -150 136 -180 146 -42 12 -112 21
-152 18z"/>
<path d="M275 1169 l-90 -5 85 -4 c47 -2 90 -4 95 -5 6 -1 66 -5 135 -9 69 -5
134 -10 145 -12 54 -11 95 -6 127 14 18 12 26 22 18 23 -72 4 -444 3 -515 -2z"/>
<path d="M890 1110 c-13 -11 -28 -21 -34 -21 -6 -1 -21 -3 -32 -4 -33 -3 -46
-15 -41 -36 3 -10 -3 -29 -12 -41 -31 -40 -33 -59 -11 -80 11 -11 20 -32 20
-49 0 -22 6 -32 23 -38 12 -5 28 -6 34 -4 7 3 28 -4 46 -16 43 -26 59 -26 82
-1 12 14 29 20 50 18 42 -3 58 9 51 38 -5 18 0 31 19 48 28 26 33 54 10 62
-16 7 -30 41 -26 66 2 16 -14 25 -65 34 -15 3 -38 14 -52 24 -31 25 -34 25
-62 0z"/>
<path d="M468 1110 c-10 -6 -20 -27 -24 -48 -9 -50 -18 -59 -89 -91 -34 -16
-65 -34 -69 -40 -4 -6 14 -43 41 -82 40 -61 47 -78 45 -116 -2 -54 12 -62 65
-34 75 38 76 56 9 120 -67 64 -42 77 127 67 61 -4 113 -7 116 -8 22 -2 26 10
26 80 0 42 4 91 9 108 l8 31 -54 7 c-116 13 -194 15 -210 6z"/>
<path d="M1096 810 c-48 -21 -84 -40 -79 -43 18 -11 270 -4 321 9 57 15 192
19 192 6 0 -5 -8 -31 -17 -58 -21 -63 -94 -135 -191 -189 -40 -22 -72 -44 -72
-48 0 -8 80 -4 145 8 52 10 153 62 189 98 19 19 43 52 54 74 18 34 42 133 42
170 0 12 -43 14 -248 12 l-249 -2 -87 -37z"/>
<path d="M1365 763 c-33 -8 -42 -21 -49 -66 -4 -23 -17 -66 -31 -94 -13 -29
-20 -55 -16 -57 11 -7 89 43 141 90 44 40 85 108 75 124 -6 10 -84 12 -120 3z"/>
</g>
</svg>
